<svg width="87" height="87" viewBox="0 0 87 87" fill="none" xmlns="http://www.w3.org/2000/svg">
<path d="M36.9025 61.654C37.3375 61.654 37.6674 61.6395 37.8849 61.6105C38.14 61.5589 38.3701 61.4221 38.5374 61.2226C38.7549 60.9943 38.8636 60.6644 38.8636 60.2294L38.8491 58.2103C38.8383 56.9234 38.8346 55.9011 38.8346 55.1508L38.1531 55.2704C37.6078 55.3563 37.0555 55.3903 36.5038 55.3719C35.8105 55.3596 35.1194 55.2905 34.4375 55.1653C33.7138 55.0303 33.0328 54.7246 32.451 54.2735C31.8411 53.8122 31.386 53.1762 31.146 52.4501L30.8488 51.765C30.5987 51.2255 30.2847 50.718 29.9135 50.2534C29.5802 49.777 29.1361 49.3889 28.6194 49.1224L28.4128 48.9774C28.2705 48.8726 28.1414 48.7508 28.0285 48.6149C27.9189 48.4914 27.8285 48.3521 27.7603 48.2016C27.7023 48.0639 27.7494 47.9479 27.9053 47.8609C28.1788 47.7509 28.474 47.7051 28.768 47.7268L29.3625 47.8174C29.7613 47.8935 30.2506 48.1328 30.8343 48.5279C31.4143 48.9266 31.8964 49.4378 32.2734 50.0721C32.7301 50.8841 33.2775 51.504 33.9228 51.9281C34.4923 52.3298 35.169 52.552 35.8658 52.5661C36.5183 52.5661 37.0838 52.519 37.5586 52.4211C38.0209 52.3253 38.4699 52.1744 38.8963 51.9716C39.0739 50.6485 39.556 49.6263 40.3463 48.9158C39.3203 48.8143 38.3036 48.6349 37.3049 48.3793C36.3297 48.1105 35.392 47.7208 34.5136 47.2193C33.5937 46.7202 32.7808 46.0452 32.1211 45.2328C31.4904 44.4389 30.972 43.4021 30.5624 42.1153C30.1353 40.6696 29.9311 39.1673 29.957 37.6601C29.957 35.2676 30.74 33.2268 32.3024 31.5448C31.5701 29.7431 31.639 27.724 32.509 25.4874C33.0854 25.3061 33.9373 25.4403 35.0646 25.8861C36.192 26.332 37.0221 26.7126 37.5441 27.0316C38.0698 27.347 38.4866 27.6116 38.8056 27.8291C40.6623 27.3135 42.5808 27.0549 44.5078 27.0606C46.4653 27.0606 48.3684 27.3144 50.2099 27.8328L51.3336 27.1186C52.1094 26.6474 53.0193 26.2088 54.0669 25.8136C55.1181 25.4149 55.9193 25.3061 56.4739 25.4874C57.3656 27.724 57.4454 29.7431 56.7095 31.5411C58.2755 33.2268 59.0585 35.264 59.0585 37.6601C59.0585 39.3421 58.8555 40.832 58.4495 42.1298C58.0435 43.4275 57.5179 44.4643 56.8762 45.2473C56.2057 46.0518 55.389 46.7221 54.4693 47.2229C53.5909 47.7246 52.6532 48.1143 51.678 48.3829C50.678 48.6376 49.6601 48.8157 48.633 48.9158C49.6625 49.8039 50.1773 51.2104 50.1773 53.1316V60.2258C50.1773 60.5629 50.228 60.8348 50.3259 61.045C50.3719 61.1452 50.4377 61.235 50.5193 61.3091C50.6009 61.3833 50.6966 61.4401 50.8008 61.4764C51.0183 61.5525 51.214 61.6033 51.3808 61.6214C51.5511 61.6432 51.7904 61.654 52.1058 61.654H36.9061H36.9025Z" fill="black"/>
<path d="M21.75 14.5C19.8272 14.5 17.9831 15.2638 16.6235 16.6235C15.2638 17.9831 14.5 19.8272 14.5 21.75V65.25C14.5 67.1728 15.2638 69.0169 16.6235 70.3765C17.9831 71.7362 19.8272 72.5 21.75 72.5H65.25C67.1728 72.5 69.0169 71.7362 70.3765 70.3765C71.7362 69.0169 72.5 67.1728 72.5 65.25V21.75C72.5 19.8272 71.7362 17.9831 70.3765 16.6235C69.0169 15.2638 67.1728 14.5 65.25 14.5H21.75ZM21.75 7.25H65.25C69.0956 7.25 72.7838 8.77767 75.503 11.497C78.2223 14.2162 79.75 17.9044 79.75 21.75V65.25C79.75 69.0956 78.2223 72.7838 75.503 75.503C72.7838 78.2223 69.0956 79.75 65.25 79.75H21.75C17.9044 79.75 14.2162 78.2223 11.497 75.503C8.77767 72.7838 7.25 69.0956 7.25 65.25V21.75C7.25 17.9044 8.77767 14.2162 11.497 11.497C14.2162 8.77767 17.9044 7.25 21.75 7.25Z" fill="black"/>
</svg>
